<?xml version="1.0" encoding="utf-8"?>
<!-- Generator: Adobe Illustrator 16.0.0, SVG Export Plug-In . SVG Version: 6.00 Build 0)  -->
<!DOCTYPE svg PUBLIC "-//W3C//DTD SVG 1.1//EN" "http://www.w3.org/Graphics/SVG/1.1/DTD/svg11.dtd">
<svg version="1.1" id="Layer_1" xmlns="http://www.w3.org/2000/svg" xmlns:xlink="http://www.w3.org/1999/xlink" x="0px" y="0px"
	 width="500px" height="500px" viewBox="0 0 500 500" enable-background="new 0 0 500 500" xml:space="preserve">
<g>
	<circle fill="#E0E0E0" cx="250.006" cy="249.879" r="212.83"/>
	<path fill="#D1D2D1" d="M462.836,249.879c0,117.542-95.287,212.828-212.83,212.828V37.05
		C367.549,37.05,462.836,132.336,462.836,249.879z"/>
</g>
<text transform="matrix(1 0 0 1 -312.5728 476.9551)" fill="#414147" font-family="'Liberator'" font-size="25.4986" letter-spacing="2">COMMAND CONTROL</text>
<g>
	<rect x="89.784" y="167.375" fill="#414147" width="321.931" height="176.967"/>
	<rect x="89.784" y="167.375" fill="#4B4B4F" width="160.223" height="176.967"/>
	<rect x="106.138" y="185.724" fill="#EC4643" width="53.673" height="75.14"/>
	<rect x="172.333" y="185.726" fill="#00B088" width="53.672" height="75.138"/>
	<rect x="321.992" y="235.745" fill="#EC4643" width="79.072" height="28.164"/>
	<rect x="322.293" y="185.726" fill="#EC4643" width="79.073" height="28.164"/>
	<rect x="199.168" y="185.726" fill="#0FA07B" width="26.836" height="75.138"/>
	<rect x="132.974" y="185.724" fill="#D34242" width="26.837" height="75.14"/>
	<rect x="106.138" y="304.186" fill="#3F3932" width="199.424" height="3.625"/>
	<rect x="132.974" y="290.285" fill="#3F3932" width="44.136" height="29.42"/>
	<rect x="155.041" y="290.285" fill="#2D2822" width="22.069" height="29.42"/>
	<rect x="153.323" y="290.285" fill="#C1C1C0" width="3.338" height="29.42"/>
	<rect x="153.323" y="290.285" fill="#D6D6D6" width="1.719" height="29.42"/>
	<g>
		<polygon fill="#C4BEB5" points="272.818,244.755 260.846,224.013 272.818,203.273 296.77,203.273 308.746,224.013 296.77,244.755 
					"/>
		<rect x="274.797" y="190.22" fill="#C3BDB4" width="19.996" height="66.148"/>
		<ellipse fill="#A39A90" cx="284.727" cy="222.312" rx="16.174" ry="16.436"/>
		<path fill="#EB4543" d="M292.549,201.758c0,1.636-1.254,2.963-2.802,2.963h-10.041c-1.549,0-2.804-1.327-2.804-2.963v-6.206
			c0-1.636,1.255-2.962,2.804-2.962h10.041c1.548,0,2.802,1.326,2.802,2.962V201.758z"/>
		<path fill="#B5ACA0" d="M289.839,200.443c0-2.88-2.335-5.215-5.217-5.215l0,0c-2.88,0-5.216,2.335-5.216,5.215v20.347
			c0,2.881,2.336,5.217,5.216,5.217l0,0c2.882,0,5.217-2.335,5.217-5.217V200.443z"/>
		<path fill="#514D4C" d="M292.549,251.42c0,1.635-1.254,2.962-2.802,2.962h-10.041c-1.549,0-2.804-1.327-2.804-2.962v-6.207
			c0-1.635,1.255-2.962,2.973-2.962h10.041c1.379,0,2.633,1.327,2.633,2.962V251.42z"/>
	</g>
	<g>
		<g>
			<defs>
				<circle id="SVGID_1_" cx="359.068" cy="304.188" r="21.673"/>
			</defs>
			<clipPath id="SVGID_2_">
				<use xlink:href="#SVGID_1_"  overflow="visible"/>
			</clipPath>
			<g clip-path="url(#SVGID_2_)">
				<circle fill="#ED4744" cx="359.025" cy="304.188" r="21.673"/>
				
					<rect x="332.409" y="297.752" transform="matrix(-0.8658 0.5004 -0.5004 -0.8658 818.9205 377.3665)" fill="#DD4040" width="52.896" height="1.489"/>
				
					<rect x="337.26" y="310.041" transform="matrix(-0.8658 0.5004 -0.5004 -0.8658 834.1206 397.863)" fill="#DD4040" width="52.896" height="1.488"/>
				
					<rect x="336.779" y="309.176" transform="matrix(-0.8658 0.5004 -0.5004 -0.8658 832.7892 396.4928)" fill="#DB4B4B" width="52.896" height="1.487"/>
				
					<rect x="333.18" y="298.768" transform="matrix(-0.8658 0.5004 -0.5004 -0.8658 820.8697 378.8659)" fill="#DB4B4B" width="52.896" height="1.49"/>
				
					<rect x="337.469" y="304.609" transform="matrix(-0.5162 -0.8564 0.8564 -0.5162 240.9209 771.4325)" fill="#C1C1C0" width="1.72" height="26.133"/>
				
					<rect x="337.667" y="304.26" transform="matrix(-0.5164 -0.8563 0.8563 -0.5164 240.9909 770.7369)" fill="#D6D6D6" width="0.885" height="26.132"/>
			</g>
		</g>
	</g>
	<rect x="361.528" y="185.883" fill="#D34242" width="39.838" height="27.85"/>
	<rect x="360.823" y="235.902" fill="#D34242" width="39.837" height="27.85"/>
	<rect x="250.006" y="304.186" fill="#332E29" width="55.557" height="3.625"/>
	<rect x="284.622" y="190.221" fill="#C3BDB4" width="10.171" height="66.148"/>
	<polygon fill="#C4BEB5" points="284.623,244.755 284.795,203.273 296.77,203.273 308.746,224.013 296.77,244.755 	"/>
	<path fill="#A39A90" d="M300.796,222.312c0,9.078-7.239,16.436-16.174,16.436v-32.871
		C293.557,205.876,300.796,213.234,300.796,222.312z"/>
	<path fill="#B5ACA0" d="M289.839,200.443c0-2.88-2.335-5.215-5.217-5.215l0,0v30.779l0,0c2.882,0,5.217-2.335,5.217-5.217V200.443z
		"/>
	<path fill="#EB4543" d="M292.617,201.758c0,1.636-1.254,2.963-2.803,2.963h-5.192V192.59h5.192c1.549,0,2.803,1.326,2.803,2.962
		V201.758z"/>
	<path fill="#514D4C" d="M292.549,251.42c0,1.635-1.254,2.962-2.802,2.962h-5.124l-0.001-12.131h5.125
		c1.548,0,2.802,1.327,2.802,2.962V251.42z"/>
	<path fill="#B5ACA0" d="M289.839,200.443c0-2.88-2.335-5.215-5.217-5.215c0,0,0,31.755,0,30.779l0,0
		c2.882,0,5.217-2.335,5.217-5.217V200.443z"/>
	<g opacity="0.1" enable-background="new    ">
		<g>
			
				<rect id="SVGID_3_" x="284.622" y="190.221" opacity="0.1" fill="#47423C" enable-background="new    " width="10.171" height="66.148"/>
		</g>
		<g>
			<polygon id="SVGID_4_" opacity="0.1" fill="#47423C" enable-background="new    " points="284.623,244.755 284.795,203.273 
				296.77,203.273 308.746,224.013 296.77,244.755 			"/>
		</g>
		<g>
			<path id="SVGID_5_" opacity="0.1" fill="#47423C" enable-background="new    " d="M300.796,222.312
				c0,9.078-7.239,16.436-16.174,16.436v-32.871C293.557,205.876,300.796,213.234,300.796,222.312z"/>
		</g>
		<g>
			<path id="SVGID_6_" opacity="0.1" fill="#47423C" enable-background="new    " d="M289.839,200.443
				c0-2.88-2.335-5.215-5.217-5.215l0,0v30.779l0,0c2.882,0,5.217-2.335,5.217-5.217V200.443z"/>
		</g>
		<g>
			<path id="SVGID_7_" opacity="0.1" fill="#47423C" enable-background="new    " d="M292.617,201.758
				c0,1.636-1.254,2.963-2.803,2.963h-5.192V192.59h5.192c1.549,0,2.803,1.326,2.803,2.962V201.758z"/>
		</g>
		<g>
			<path id="SVGID_8_" opacity="0.1" fill="#47423C" enable-background="new    " d="M292.549,251.42
				c0,1.635-1.254,2.962-2.802,2.962h-5.124l-0.001-12.131h5.125c1.548,0,2.802,1.327,2.802,2.962V251.42z"/>
		</g>
		<g>
			<path id="SVGID_9_" opacity="0.1" fill="#47423C" enable-background="new    " d="M289.839,200.443
				c0-2.88-2.335-5.215-5.217-5.215c0,0,0,31.755,0,30.779l0,0c2.882,0,5.217-2.335,5.217-5.217V200.443z"/>
		</g>
		<g>
			<defs>
				<rect id="SVGID_10_" x="284.622" y="190.221" width="10.171" height="66.148"/>
			</defs>
			<clipPath id="SVGID_11_">
				<use xlink:href="#SVGID_10_"  overflow="visible"/>
			</clipPath>
		</g>
		<g>
			<defs>
				<rect id="SVGID_12_" x="284.622" y="190.221" width="10.171" height="66.148"/>
			</defs>
			<defs>
				<polygon id="SVGID_13_" points="284.623,244.755 284.795,203.273 296.77,203.273 308.746,224.013 296.77,244.755 				"/>
			</defs>
			<clipPath id="SVGID_14_">
				<use xlink:href="#SVGID_12_"  overflow="visible"/>
			</clipPath>
			<clipPath id="SVGID_15_" clip-path="url(#SVGID_14_)">
				<use xlink:href="#SVGID_13_"  overflow="visible"/>
			</clipPath>
		</g>
		<g>
			<defs>
				<rect id="SVGID_16_" x="284.622" y="190.221" width="10.171" height="66.148"/>
			</defs>
			<defs>
				<polygon id="SVGID_17_" points="284.623,244.755 284.795,203.273 296.77,203.273 308.746,224.013 296.77,244.755 				"/>
			</defs>
			<defs>
				<path id="SVGID_18_" d="M300.796,222.312c0,9.078-7.239,16.436-16.174,16.436v-32.871
					C293.557,205.876,300.796,213.234,300.796,222.312z"/>
			</defs>
			<clipPath id="SVGID_19_">
				<use xlink:href="#SVGID_16_"  overflow="visible"/>
			</clipPath>
			<clipPath id="SVGID_20_" clip-path="url(#SVGID_19_)">
				<use xlink:href="#SVGID_17_"  overflow="visible"/>
			</clipPath>
			<clipPath id="SVGID_21_" clip-path="url(#SVGID_20_)">
				<use xlink:href="#SVGID_18_"  overflow="visible"/>
			</clipPath>
		</g>
		<g>
			<defs>
				<rect id="SVGID_22_" x="284.622" y="190.221" width="10.171" height="66.148"/>
			</defs>
			<defs>
				<polygon id="SVGID_23_" points="284.623,244.755 284.795,203.273 296.77,203.273 308.746,224.013 296.77,244.755 				"/>
			</defs>
			<defs>
				<path id="SVGID_24_" d="M300.796,222.312c0,9.078-7.239,16.436-16.174,16.436v-32.871
					C293.557,205.876,300.796,213.234,300.796,222.312z"/>
			</defs>
			<defs>
				<path id="SVGID_25_" d="M289.839,200.443c0-2.88-2.335-5.215-5.217-5.215l0,0v30.779l0,0c2.882,0,5.217-2.335,5.217-5.217
					V200.443z"/>
			</defs>
			<clipPath id="SVGID_26_">
				<use xlink:href="#SVGID_22_"  overflow="visible"/>
			</clipPath>
			<clipPath id="SVGID_27_" clip-path="url(#SVGID_26_)">
				<use xlink:href="#SVGID_23_"  overflow="visible"/>
			</clipPath>
			<clipPath id="SVGID_28_" clip-path="url(#SVGID_27_)">
				<use xlink:href="#SVGID_24_"  overflow="visible"/>
			</clipPath>
			<clipPath id="SVGID_29_" clip-path="url(#SVGID_28_)">
				<use xlink:href="#SVGID_25_"  overflow="visible"/>
			</clipPath>
		</g>
		<g>
			<defs>
				<rect id="SVGID_30_" x="284.622" y="190.221" width="10.171" height="66.148"/>
			</defs>
			<defs>
				<polygon id="SVGID_31_" points="284.623,244.755 284.795,203.273 296.77,203.273 308.746,224.013 296.77,244.755 				"/>
			</defs>
			<defs>
				<path id="SVGID_32_" d="M300.796,222.312c0,9.078-7.239,16.436-16.174,16.436v-32.871
					C293.557,205.876,300.796,213.234,300.796,222.312z"/>
			</defs>
			<defs>
				<path id="SVGID_33_" d="M289.839,200.443c0-2.88-2.335-5.215-5.217-5.215l0,0v30.779l0,0c2.882,0,5.217-2.335,5.217-5.217
					V200.443z"/>
			</defs>
			<defs>
				<path id="SVGID_34_" d="M292.617,201.758c0,1.636-1.254,2.963-2.803,2.963h-5.192V192.59h5.192c1.549,0,2.803,1.326,2.803,2.962
					V201.758z"/>
			</defs>
			<clipPath id="SVGID_35_">
				<use xlink:href="#SVGID_30_"  overflow="visible"/>
			</clipPath>
			<clipPath id="SVGID_36_" clip-path="url(#SVGID_35_)">
				<use xlink:href="#SVGID_31_"  overflow="visible"/>
			</clipPath>
			<clipPath id="SVGID_37_" clip-path="url(#SVGID_36_)">
				<use xlink:href="#SVGID_32_"  overflow="visible"/>
			</clipPath>
			<clipPath id="SVGID_38_" clip-path="url(#SVGID_37_)">
				<use xlink:href="#SVGID_33_"  overflow="visible"/>
			</clipPath>
			<clipPath id="SVGID_39_" clip-path="url(#SVGID_38_)">
				<use xlink:href="#SVGID_34_"  overflow="visible"/>
			</clipPath>
		</g>
		<g>
			<defs>
				<rect id="SVGID_40_" x="284.622" y="190.221" width="10.171" height="66.148"/>
			</defs>
			<defs>
				<polygon id="SVGID_41_" points="284.623,244.755 284.795,203.273 296.77,203.273 308.746,224.013 296.77,244.755 				"/>
			</defs>
			<defs>
				<path id="SVGID_42_" d="M300.796,222.312c0,9.078-7.239,16.436-16.174,16.436v-32.871
					C293.557,205.876,300.796,213.234,300.796,222.312z"/>
			</defs>
			<defs>
				<path id="SVGID_43_" d="M289.839,200.443c0-2.88-2.335-5.215-5.217-5.215l0,0v30.779l0,0c2.882,0,5.217-2.335,5.217-5.217
					V200.443z"/>
			</defs>
			<defs>
				<path id="SVGID_44_" d="M292.617,201.758c0,1.636-1.254,2.963-2.803,2.963h-5.192V192.59h5.192c1.549,0,2.803,1.326,2.803,2.962
					V201.758z"/>
			</defs>
			<defs>
				<path id="SVGID_45_" d="M292.549,251.42c0,1.635-1.254,2.962-2.802,2.962h-5.124l-0.001-12.131h5.125
					c1.548,0,2.802,1.327,2.802,2.962V251.42z"/>
			</defs>
			<clipPath id="SVGID_46_">
				<use xlink:href="#SVGID_40_"  overflow="visible"/>
			</clipPath>
			<clipPath id="SVGID_47_" clip-path="url(#SVGID_46_)">
				<use xlink:href="#SVGID_41_"  overflow="visible"/>
			</clipPath>
			<clipPath id="SVGID_48_" clip-path="url(#SVGID_47_)">
				<use xlink:href="#SVGID_42_"  overflow="visible"/>
			</clipPath>
			<clipPath id="SVGID_49_" clip-path="url(#SVGID_48_)">
				<use xlink:href="#SVGID_43_"  overflow="visible"/>
			</clipPath>
			<clipPath id="SVGID_50_" clip-path="url(#SVGID_49_)">
				<use xlink:href="#SVGID_44_"  overflow="visible"/>
			</clipPath>
			<clipPath id="SVGID_51_" clip-path="url(#SVGID_50_)">
				<use xlink:href="#SVGID_45_"  overflow="visible"/>
			</clipPath>
		</g>
		<g>
			<defs>
				<rect id="SVGID_52_" x="284.622" y="190.221" width="10.171" height="66.148"/>
			</defs>
			<defs>
				<polygon id="SVGID_53_" points="284.623,244.755 284.795,203.273 296.77,203.273 308.746,224.013 296.77,244.755 				"/>
			</defs>
			<defs>
				<path id="SVGID_54_" d="M300.796,222.312c0,9.078-7.239,16.436-16.174,16.436v-32.871
					C293.557,205.876,300.796,213.234,300.796,222.312z"/>
			</defs>
			<defs>
				<path id="SVGID_55_" d="M289.839,200.443c0-2.88-2.335-5.215-5.217-5.215l0,0v30.779l0,0c2.882,0,5.217-2.335,5.217-5.217
					V200.443z"/>
			</defs>
			<defs>
				<path id="SVGID_56_" d="M292.617,201.758c0,1.636-1.254,2.963-2.803,2.963h-5.192V192.59h5.192c1.549,0,2.803,1.326,2.803,2.962
					V201.758z"/>
			</defs>
			<defs>
				<path id="SVGID_57_" d="M292.549,251.42c0,1.635-1.254,2.962-2.802,2.962h-5.124l-0.001-12.131h5.125
					c1.548,0,2.802,1.327,2.802,2.962V251.42z"/>
			</defs>
			<defs>
				<path id="SVGID_58_" d="M289.839,200.443c0-2.88-2.335-5.215-5.217-5.215c0,0,0,31.755,0,30.779l0,0
					c2.882,0,5.217-2.335,5.217-5.217V200.443z"/>
			</defs>
			<clipPath id="SVGID_59_">
				<use xlink:href="#SVGID_52_"  overflow="visible"/>
			</clipPath>
			<clipPath id="SVGID_60_" clip-path="url(#SVGID_59_)">
				<use xlink:href="#SVGID_53_"  overflow="visible"/>
			</clipPath>
			<clipPath id="SVGID_61_" clip-path="url(#SVGID_60_)">
				<use xlink:href="#SVGID_54_"  overflow="visible"/>
			</clipPath>
			<clipPath id="SVGID_62_" clip-path="url(#SVGID_61_)">
				<use xlink:href="#SVGID_55_"  overflow="visible"/>
			</clipPath>
			<clipPath id="SVGID_63_" clip-path="url(#SVGID_62_)">
				<use xlink:href="#SVGID_56_"  overflow="visible"/>
			</clipPath>
			<clipPath id="SVGID_64_" clip-path="url(#SVGID_63_)">
				<use xlink:href="#SVGID_57_"  overflow="visible"/>
			</clipPath>
			<clipPath id="SVGID_65_" clip-path="url(#SVGID_64_)">
				<use xlink:href="#SVGID_58_"  overflow="visible"/>
			</clipPath>
			<rect x="281.975" y="184.494" clip-path="url(#SVGID_65_)" fill="#47423C" width="29.42" height="75.422"/>
		</g>
	</g>
</g>
</svg>
