<?xml version="1.0" encoding="utf-8"?>
<!-- Generator: Adobe Illustrator 16.0.0, SVG Export Plug-In . SVG Version: 6.00 Build 0)  -->
<!DOCTYPE svg PUBLIC "-//W3C//DTD SVG 1.1//EN" "http://www.w3.org/Graphics/SVG/1.1/DTD/svg11.dtd">
<svg version="1.1" xmlns="http://www.w3.org/2000/svg" xmlns:xlink="http://www.w3.org/1999/xlink" x="0px" y="0px" width="500px"
	 height="500px" viewBox="0 0 500 500" enable-background="new 0 0 500 500" xml:space="preserve">
<g id="Layer_1">
	<g>
		<circle fill="#FAA643" cx="251" cy="248.483" r="212.83"/>
		<path fill="#EB9B3D" d="M463.83,248.484c0,117.542-95.288,212.829-212.83,212.829V35.654
			C368.542,35.654,463.83,130.941,463.83,248.484z"/>
	</g>
</g>
<g id="Layer_2">
	
		<text transform="matrix(1 0 0 1 102.6782 379.4688)" fill="#414147" font-family="'Liberator'" font-size="27.9659" letter-spacing="4">COMMAND CONTROL</text>
	<g>
		<rect x="90.034" y="157.06" fill="#414147" width="321.931" height="176.967"/>
		<rect x="90.034" y="157.06" fill="#4B4B4F" width="160.223" height="176.967"/>
		<rect x="106.388" y="175.409" fill="#EC4643" width="53.673" height="75.14"/>
		<rect x="172.583" y="175.411" fill="#00B088" width="53.672" height="75.138"/>
		<rect x="322.242" y="225.43" fill="#EC4643" width="79.072" height="28.164"/>
		<rect x="322.543" y="175.411" fill="#EC4643" width="79.073" height="28.164"/>
		<rect x="199.418" y="175.411" fill="#0FA07B" width="26.836" height="75.138"/>
		<rect x="133.224" y="175.409" fill="#D34242" width="26.837" height="75.14"/>
		<rect x="106.388" y="293.871" fill="#3F3932" width="199.425" height="3.625"/>
		<rect x="133.224" y="279.97" fill="#3F3932" width="44.136" height="29.421"/>
		<rect x="155.291" y="279.97" fill="#2D2822" width="22.069" height="29.421"/>
		<rect x="153.573" y="279.97" fill="#C1C1C0" width="3.338" height="29.421"/>
		<rect x="153.573" y="279.97" fill="#D6D6D6" width="1.719" height="29.421"/>
		<g>
			<polygon fill="#C4BEB5" points="273.068,234.44 261.095,213.698 273.068,192.958 297.019,192.958 308.996,213.698 
				297.019,234.44 			"/>
			<rect x="275.047" y="179.905" fill="#C3BDB4" width="19.996" height="66.148"/>
			<ellipse fill="#A39A90" cx="284.977" cy="211.997" rx="16.174" ry="16.436"/>
			<path fill="#EB4543" d="M292.799,191.443c0,1.636-1.254,2.963-2.802,2.963h-10.041c-1.549,0-2.804-1.327-2.804-2.963v-6.206
				c0-1.636,1.255-2.962,2.804-2.962h10.041c1.548,0,2.802,1.326,2.802,2.962V191.443z"/>
			<path fill="#B5ACA0" d="M290.089,190.128c0-2.88-2.335-5.215-5.217-5.215l0,0c-2.88,0-5.216,2.335-5.216,5.215v20.347
				c0,2.881,2.336,5.217,5.216,5.217l0,0c2.882,0,5.217-2.335,5.217-5.217V190.128z"/>
			<path fill="#514D4C" d="M292.799,241.105c0,1.635-1.254,2.962-2.802,2.962h-10.041c-1.549,0-2.804-1.327-2.804-2.962v-6.207
				c0-1.635,1.255-2.962,2.973-2.962h10.041c1.379,0,2.633,1.327,2.633,2.962V241.105z"/>
		</g>
		<g>
			<defs>
				<circle id="SVGID_1_" cx="359.318" cy="293.873" r="21.673"/>
			</defs>
			<clipPath id="SVGID_2_">
				<use xlink:href="#SVGID_1_"  overflow="visible"/>
			</clipPath>
			<g clip-path="url(#SVGID_2_)">
				<circle fill="#ED4744" cx="359.275" cy="293.873" r="21.673"/>
				
					<rect x="332.657" y="287.437" transform="matrix(0.8658 -0.5004 0.5004 0.8658 -96.0118 218.3695)" fill="#DD4040" width="52.896" height="1.489"/>
				
					<rect x="337.508" y="299.722" transform="matrix(0.8658 -0.5004 0.5004 0.8658 -101.5099 222.4573)" fill="#DD4040" width="52.895" height="1.488"/>
				
					<rect x="337.027" y="298.861" transform="matrix(0.8658 -0.5004 0.5004 0.8658 -101.1418 222.0891)" fill="#DB4B4B" width="52.896" height="1.488"/>
				
					<rect x="333.428" y="288.454" transform="matrix(0.8658 -0.5004 0.5004 0.8658 -96.4164 218.8843)" fill="#DB4B4B" width="52.895" height="1.49"/>
				
					<rect x="337.723" y="294.322" transform="matrix(0.5162 0.8564 -0.8564 0.5162 427.0496 -141.2759)" fill="#C1C1C0" width="1.72" height="26.134"/>
				
					<rect x="337.925" y="293.964" transform="matrix(0.5164 0.8563 -0.8563 0.5164 426.5382 -141.2843)" fill="#D6D6D6" width="0.885" height="26.134"/>
			</g>
		</g>
		<rect x="361.778" y="175.568" fill="#D34242" width="39.838" height="27.85"/>
		<rect x="361.073" y="225.587" fill="#D34242" width="39.837" height="27.85"/>
		<rect x="250.256" y="293.871" fill="#332E29" width="55.556" height="3.625"/>
		<rect x="284.872" y="179.906" fill="#C3BDB4" width="10.171" height="66.148"/>
		<polygon fill="#C4BEB5" points="284.873,234.44 285.045,192.958 297.019,192.958 308.996,213.698 297.019,234.44 		"/>
		<path fill="#A39A90" d="M301.046,211.997c0,9.078-7.239,16.436-16.174,16.436v-32.871
			C293.807,195.562,301.046,202.919,301.046,211.997z"/>
		<path fill="#B5ACA0" d="M290.089,190.128c0-2.88-2.335-5.215-5.217-5.215l0,0v30.779l0,0c2.882,0,5.217-2.335,5.217-5.217V190.128
			z"/>
		<path fill="#EB4543" d="M292.867,191.443c0,1.636-1.254,2.963-2.802,2.963h-5.193v-12.131h5.193c1.548,0,2.802,1.326,2.802,2.962
			V191.443z"/>
		<path fill="#514D4C" d="M292.799,241.105c0,1.635-1.254,2.962-2.802,2.962h-5.124l-0.001-12.131h5.125
			c1.548,0,2.802,1.327,2.802,2.962V241.105z"/>
		<path fill="#B5ACA0" d="M290.089,190.128c0-2.88-2.335-5.215-5.217-5.215c0,0,0,31.755,0,30.779l0,0
			c2.882,0,5.217-2.335,5.217-5.217V190.128z"/>
		<g opacity="0.1">
			<defs>
				<rect id="SVGID_3_" x="284.872" y="179.906" opacity="0.1" width="10.171" height="66.148"/>
			</defs>
			<defs>
				<polygon id="SVGID_4_" opacity="0.1" points="284.873,234.44 285.045,192.958 297.019,192.958 308.996,213.698 297.019,234.44 
									"/>
			</defs>
			<defs>
				<path id="SVGID_5_" opacity="0.1" d="M301.046,211.997c0,9.078-7.239,16.436-16.174,16.436v-32.871
					C293.807,195.562,301.046,202.919,301.046,211.997z"/>
			</defs>
			<defs>
				<path id="SVGID_6_" opacity="0.1" d="M290.089,190.128c0-2.88-2.335-5.215-5.217-5.215l0,0v30.779l0,0
					c2.882,0,5.217-2.335,5.217-5.217V190.128z"/>
			</defs>
			<defs>
				<path id="SVGID_7_" opacity="0.1" d="M292.867,191.443c0,1.636-1.254,2.963-2.802,2.963h-5.193v-12.131h5.193
					c1.548,0,2.802,1.326,2.802,2.962V191.443z"/>
			</defs>
			<defs>
				<path id="SVGID_8_" opacity="0.1" d="M292.799,241.105c0,1.635-1.254,2.962-2.802,2.962h-5.124l-0.001-12.131h5.125
					c1.548,0,2.802,1.327,2.802,2.962V241.105z"/>
			</defs>
			<defs>
				<path id="SVGID_9_" opacity="0.1" d="M290.089,190.128c0-2.88-2.335-5.215-5.217-5.215c0,0,0,31.755,0,30.779l0,0
					c2.882,0,5.217-2.335,5.217-5.217V190.128z"/>
			</defs>
			<use xlink:href="#SVGID_3_"  overflow="visible" fill="#47423C"/>
			<use xlink:href="#SVGID_4_"  overflow="visible" fill="#47423C"/>
			<use xlink:href="#SVGID_5_"  overflow="visible" fill="#47423C"/>
			<use xlink:href="#SVGID_6_"  overflow="visible" fill="#47423C"/>
			<use xlink:href="#SVGID_7_"  overflow="visible" fill="#47423C"/>
			<use xlink:href="#SVGID_8_"  overflow="visible" fill="#47423C"/>
			<use xlink:href="#SVGID_9_"  overflow="visible" fill="#47423C"/>
			<clipPath id="SVGID_10_">
				<use xlink:href="#SVGID_3_"  overflow="visible"/>
			</clipPath>
			<clipPath id="SVGID_11_" clip-path="url(#SVGID_10_)">
				<use xlink:href="#SVGID_4_"  overflow="visible"/>
			</clipPath>
			<clipPath id="SVGID_12_" clip-path="url(#SVGID_11_)">
				<use xlink:href="#SVGID_5_"  overflow="visible"/>
			</clipPath>
			<clipPath id="SVGID_13_" clip-path="url(#SVGID_12_)">
				<use xlink:href="#SVGID_6_"  overflow="visible"/>
			</clipPath>
			<clipPath id="SVGID_14_" clip-path="url(#SVGID_13_)">
				<use xlink:href="#SVGID_7_"  overflow="visible"/>
			</clipPath>
			<clipPath id="SVGID_15_" clip-path="url(#SVGID_14_)">
				<use xlink:href="#SVGID_8_"  overflow="visible"/>
			</clipPath>
			<clipPath id="SVGID_16_" clip-path="url(#SVGID_15_)">
				<use xlink:href="#SVGID_9_"  overflow="visible"/>
			</clipPath>
			<rect x="282.224" y="174.179" clip-path="url(#SVGID_16_)" fill="#47423C" width="29.421" height="75.422"/>
		</g>
	</g>
</g>
</svg>
