<?xml version="1.0" encoding="utf-8"?>
<!-- Generator: Adobe Illustrator 16.0.0, SVG Export Plug-In . SVG Version: 6.00 Build 0)  -->
<!DOCTYPE svg PUBLIC "-//W3C//DTD SVG 1.1//EN" "http://www.w3.org/Graphics/SVG/1.1/DTD/svg11.dtd">
<svg version="1.1" id="Layer_1" xmlns="http://www.w3.org/2000/svg" xmlns:xlink="http://www.w3.org/1999/xlink" x="0px" y="0px"
	 width="500px" height="500px" viewBox="0 0 500 500" enable-background="new 0 0 500 500" xml:space="preserve">
<g>
	<circle fill="#E0E0E0" cx="250.006" cy="249.879" r="212.83"/>
	<path fill="#D1D2D1" d="M462.836,249.879c0,117.542-95.287,212.828-212.83,212.828V37.05
		C367.549,37.05,462.836,132.336,462.836,249.879z"/>
</g>
<g>
	<rect x="89.784" y="162.375" fill="#414147" width="321.931" height="176.967"/>
	<rect x="89.784" y="162.375" fill="#4B4B4F" width="160.223" height="176.967"/>
	<rect x="106.138" y="180.724" fill="#EC4643" width="53.673" height="75.14"/>
	<rect x="172.333" y="180.726" fill="#00B088" width="53.672" height="75.138"/>
	<rect x="321.992" y="230.745" fill="#EC4643" width="79.072" height="28.163"/>
	<rect x="322.293" y="180.726" fill="#EC4643" width="79.073" height="28.164"/>
	<rect x="199.168" y="180.726" fill="#0FA07B" width="26.836" height="75.138"/>
	<rect x="132.974" y="180.724" fill="#D34242" width="26.837" height="75.14"/>
	<rect x="106.138" y="299.186" fill="#3F3932" width="199.425" height="3.625"/>
	<rect x="132.974" y="285.285" fill="#3F3932" width="44.136" height="29.42"/>
	<rect x="155.041" y="285.285" fill="#2D2822" width="22.069" height="29.42"/>
	<rect x="153.323" y="285.285" fill="#C1C1C0" width="3.338" height="29.42"/>
	<rect x="153.323" y="285.285" fill="#D6D6D6" width="1.719" height="29.42"/>
	<g>
		<polygon fill="#C4BEB5" points="272.818,239.755 260.845,219.013 272.818,198.273 296.769,198.273 308.746,219.013 
			296.769,239.755 		"/>
		<rect x="274.797" y="185.22" fill="#C3BDB4" width="19.996" height="66.147"/>
		<ellipse fill="#A39A90" cx="284.727" cy="217.312" rx="16.174" ry="16.436"/>
		<path fill="#EB4543" d="M292.549,196.758c0,1.636-1.254,2.963-2.802,2.963h-10.041c-1.549,0-2.804-1.327-2.804-2.963v-6.206
			c0-1.636,1.255-2.962,2.804-2.962h10.041c1.548,0,2.802,1.326,2.802,2.962V196.758z"/>
		<path fill="#B5ACA0" d="M289.839,195.443c0-2.88-2.335-5.215-5.217-5.215l0,0c-2.88,0-5.216,2.335-5.216,5.215v20.347
			c0,2.881,2.336,5.217,5.216,5.217l0,0c2.882,0,5.217-2.335,5.217-5.217V195.443z"/>
		<path fill="#514D4C" d="M292.549,246.42c0,1.635-1.254,2.962-2.802,2.962h-10.041c-1.549,0-2.804-1.327-2.804-2.962v-6.207
			c0-1.635,1.255-2.962,2.973-2.962h10.041c1.379,0,2.633,1.327,2.633,2.962V246.42z"/>
	</g>
	<g>
		<defs>
			<circle id="SVGID_1_" cx="359.068" cy="299.188" r="21.673"/>
		</defs>
		<clipPath id="SVGID_2_">
			<use xlink:href="#SVGID_1_"  overflow="visible"/>
		</clipPath>
		<g clip-path="url(#SVGID_2_)">
			<circle fill="#ED4744" cx="359.025" cy="299.188" r="21.673"/>
			
				<rect x="332.407" y="292.752" transform="matrix(0.8658 -0.5004 0.5004 0.8658 -98.7047 218.9576)" fill="#DD4040" width="52.896" height="1.489"/>
			
				<rect x="337.259" y="305.037" transform="matrix(0.8658 -0.5004 0.5004 0.8658 -104.2019 223.0381)" fill="#DD4040" width="52.895" height="1.488"/>
			
				<rect x="336.777" y="304.176" transform="matrix(0.8658 -0.5004 0.5004 0.8658 -103.8347 222.6773)" fill="#DB4B4B" width="52.896" height="1.488"/>
			
				<rect x="333.178" y="293.769" transform="matrix(0.8658 -0.5004 0.5004 0.8658 -99.1105 219.4797)" fill="#DB4B4B" width="52.896" height="1.489"/>
			
				<rect x="337.473" y="299.636" transform="matrix(0.5162 0.8564 -0.8564 0.5162 431.4801 -138.491)" fill="#C1C1C0" width="1.72" height="26.134"/>
			
				<rect x="337.675" y="299.279" transform="matrix(0.5164 0.8563 -0.8563 0.5164 430.9682 -138.5004)" fill="#D6D6D6" width="0.885" height="26.134"/>
		</g>
	</g>
	<rect x="361.528" y="180.883" fill="#D34242" width="39.838" height="27.85"/>
	<rect x="360.823" y="230.902" fill="#D34242" width="39.837" height="27.85"/>
	<rect x="250.006" y="299.186" fill="#332E29" width="55.556" height="3.625"/>
	<rect x="284.622" y="185.221" fill="#C3BDB4" width="10.171" height="66.148"/>
	<polygon fill="#C4BEB5" points="284.623,239.755 284.795,198.273 296.769,198.273 308.746,219.013 296.769,239.755 	"/>
	<path fill="#A39A90" d="M300.796,217.312c0,9.078-7.239,16.436-16.174,16.436v-32.871
		C293.557,200.876,300.796,208.234,300.796,217.312z"/>
	<path fill="#B5ACA0" d="M289.839,195.443c0-2.88-2.335-5.215-5.217-5.215l0,0v30.779l0,0c2.882,0,5.217-2.335,5.217-5.217V195.443z
		"/>
	<path fill="#EB4543" d="M292.617,196.758c0,1.636-1.254,2.963-2.802,2.963h-5.193V187.59h5.193c1.548,0,2.802,1.326,2.802,2.962
		V196.758z"/>
	<path fill="#514D4C" d="M292.549,246.42c0,1.635-1.254,2.962-2.802,2.962h-5.124l-0.001-12.131h5.125
		c1.548,0,2.802,1.327,2.802,2.962V246.42z"/>
	<path fill="#B5ACA0" d="M289.839,195.443c0-2.88-2.335-5.215-5.217-5.215c0,0,0,31.755,0,30.779l0,0
		c2.882,0,5.217-2.335,5.217-5.217V195.443z"/>
	<g opacity="0.1">
		<defs>
			<rect id="SVGID_3_" x="284.622" y="185.221" opacity="0.1" width="10.171" height="66.148"/>
		</defs>
		<defs>
			<polygon id="SVGID_4_" opacity="0.1" points="284.623,239.755 284.795,198.273 296.769,198.273 308.746,219.013 296.769,239.755 
							"/>
		</defs>
		<defs>
			<path id="SVGID_5_" opacity="0.1" d="M300.796,217.312c0,9.078-7.239,16.436-16.174,16.436v-32.871
				C293.557,200.876,300.796,208.234,300.796,217.312z"/>
		</defs>
		<defs>
			<path id="SVGID_6_" opacity="0.1" d="M289.839,195.443c0-2.88-2.335-5.215-5.217-5.215l0,0v30.779l0,0
				c2.882,0,5.217-2.335,5.217-5.217V195.443z"/>
		</defs>
		<defs>
			<path id="SVGID_7_" opacity="0.1" d="M292.617,196.758c0,1.636-1.254,2.963-2.802,2.963h-5.193V187.59h5.193
				c1.548,0,2.802,1.326,2.802,2.962V196.758z"/>
		</defs>
		<defs>
			<path id="SVGID_8_" opacity="0.1" d="M292.549,246.42c0,1.635-1.254,2.962-2.802,2.962h-5.124l-0.001-12.131h5.125
				c1.548,0,2.802,1.327,2.802,2.962V246.42z"/>
		</defs>
		<defs>
			<path id="SVGID_9_" opacity="0.1" d="M289.839,195.443c0-2.88-2.335-5.215-5.217-5.215c0,0,0,31.755,0,30.779l0,0
				c2.882,0,5.217-2.335,5.217-5.217V195.443z"/>
		</defs>
		<use xlink:href="#SVGID_3_"  overflow="visible" fill="#47423C"/>
		<use xlink:href="#SVGID_4_"  overflow="visible" fill="#47423C"/>
		<use xlink:href="#SVGID_5_"  overflow="visible" fill="#47423C"/>
		<use xlink:href="#SVGID_6_"  overflow="visible" fill="#47423C"/>
		<use xlink:href="#SVGID_7_"  overflow="visible" fill="#47423C"/>
		<use xlink:href="#SVGID_8_"  overflow="visible" fill="#47423C"/>
		<use xlink:href="#SVGID_9_"  overflow="visible" fill="#47423C"/>
		<clipPath id="SVGID_10_">
			<use xlink:href="#SVGID_3_"  overflow="visible"/>
		</clipPath>
		<clipPath id="SVGID_11_" clip-path="url(#SVGID_10_)">
			<use xlink:href="#SVGID_4_"  overflow="visible"/>
		</clipPath>
		<clipPath id="SVGID_12_" clip-path="url(#SVGID_11_)">
			<use xlink:href="#SVGID_5_"  overflow="visible"/>
		</clipPath>
		<clipPath id="SVGID_13_" clip-path="url(#SVGID_12_)">
			<use xlink:href="#SVGID_6_"  overflow="visible"/>
		</clipPath>
		<clipPath id="SVGID_14_" clip-path="url(#SVGID_13_)">
			<use xlink:href="#SVGID_7_"  overflow="visible"/>
		</clipPath>
		<clipPath id="SVGID_15_" clip-path="url(#SVGID_14_)">
			<use xlink:href="#SVGID_8_"  overflow="visible"/>
		</clipPath>
		<clipPath id="SVGID_16_" clip-path="url(#SVGID_15_)">
			<use xlink:href="#SVGID_9_"  overflow="visible"/>
		</clipPath>
		<rect x="281.974" y="179.494" clip-path="url(#SVGID_16_)" fill="#47423C" width="29.421" height="75.422"/>
	</g>
</g>
</svg>
